<svg width="82" height="82" viewBox="0 0 82 82" fill="none" xmlns="http://www.w3.org/2000/svg">
<rect x="0.436523" y="0.417969" width="80.7567" height="80.7567" rx="40.3783" fill="#A8A8A8"/>
<path d="M64.8727 56.14L59.9263 44.8341H63.0233C64.1398 44.8341 65.0423 43.9316 65.0423 42.8152C65.0423 41.6987 64.1398 40.7962 63.0233 40.7962H58.1598L51.9778 26.6638H56.9666C58.083 26.6638 58.9855 25.7614 58.9855 24.6449C58.9855 23.5284 58.083 22.626 56.9666 22.626H24.6639C23.5474 22.626 22.645 23.5284 22.645 24.6449C22.645 25.7614 23.5474 26.6638 24.6639 26.6638H29.6526L23.4707 40.7962H18.6071C17.4907 40.7962 16.5882 41.6987 16.5882 42.8152C16.5882 43.9316 17.4907 44.8341 18.6071 44.8341H21.7042L16.7578 56.14C16.3096 57.1616 16.776 58.3507 17.7996 58.7969C18.062 58.914 18.3366 58.9665 18.6051 58.9665C19.3844 58.9665 20.1254 58.5143 20.4565 57.7551L26.1094 44.8341H55.521L61.174 57.7551C61.5051 58.5143 62.2461 58.9665 63.0254 58.9665C63.2959 58.9665 63.5705 58.914 63.8309 58.7969C64.8545 58.3487 65.3188 57.1596 64.8727 56.14ZM27.876 40.7962L34.0579 26.6638H47.5705L53.7525 40.7962H27.876Z" fill="#FAFAFA"/>
</svg>
