<svg width="11" height="11" viewBox="0 0 11 11" fill="none" xmlns="http://www.w3.org/2000/svg">
<path d="M9.88307 0.760944C9.59877 0.477069 9.21343 0.317627 8.81167 0.317627C8.40991 0.317627 8.02457 0.477069 7.74027 0.760944L0.938826 7.56253C0.744055 7.75621 0.589622 7.98659 0.484462 8.24034C0.379303 8.49409 0.325504 8.76618 0.326178 9.04086V9.89942C0.326178 10.0103 0.370237 10.1167 0.448663 10.1951C0.527089 10.2736 0.633457 10.3176 0.744368 10.3176H1.60291C1.87756 10.3184 2.14964 10.2647 2.40339 10.1596C2.65714 10.0545 2.88753 9.90011 3.08121 9.70538L9.88307 2.90338C10.1668 2.61908 10.3262 2.23383 10.3262 1.83216C10.3262 1.43049 10.1668 1.04524 9.88307 0.760944ZM2.48989 9.11404C2.25403 9.34834 1.93536 9.48026 1.60291 9.48122H1.16256V9.04086C1.16213 8.87605 1.19441 8.71279 1.2575 8.56054C1.3206 8.40828 1.41327 8.27006 1.53015 8.15386L6.69187 2.99203L7.6537 3.95389L2.48989 9.11404ZM9.29133 2.31204L8.24335 3.36047L7.28151 2.4007L8.32992 1.35228C8.39307 1.28926 8.46802 1.2393 8.55048 1.20524C8.63295 1.17119 8.72131 1.15371 8.81053 1.15381C8.89974 1.15391 8.98807 1.17158 9.07046 1.20581C9.15285 1.24004 9.22769 1.29017 9.29071 1.35332C9.35373 1.41648 9.40369 1.49143 9.43774 1.57389C9.47179 1.65636 9.48927 1.74472 9.48917 1.83394C9.48907 1.92316 9.47141 2.01149 9.43717 2.09388C9.40294 2.17627 9.35282 2.25111 9.28966 2.31413L9.29133 2.31204Z" fill="#FAFAFA"/>
</svg>
