<svg width="21" height="21" viewBox="0 0 21 21" fill="none" xmlns="http://www.w3.org/2000/svg">
<path d="M18.8333 8.42074H12.1667V1.75407C12.1667 1.31204 11.9911 0.888119 11.6785 0.575558C11.366 0.262997 10.942 0.0874023 10.5 0.0874023C10.058 0.0874023 9.63405 0.262997 9.32149 0.575558C9.00893 0.888119 8.83333 1.31204 8.83333 1.75407V8.42074H2.16667C1.72464 8.42074 1.30072 8.59633 0.988156 8.90889C0.675595 9.22145 0.5 9.64538 0.5 10.0874C0.5 10.5294 0.675595 10.9534 0.988156 11.2659C1.30072 11.5785 1.72464 11.7541 2.16667 11.7541H8.83333V18.4207C8.83333 18.8628 9.00893 19.2867 9.32149 19.5992C9.63405 19.9118 10.058 20.0874 10.5 20.0874C10.942 20.0874 11.366 19.9118 11.6785 19.5992C11.9911 19.2867 12.1667 18.8628 12.1667 18.4207V11.7541H18.8333C19.2754 11.7541 19.6993 11.5785 20.0118 11.2659C20.3244 10.9534 20.5 10.5294 20.5 10.0874C20.5 9.64538 20.3244 9.22145 20.0118 8.90889C19.6993 8.59633 19.2754 8.42074 18.8333 8.42074Z" fill="#7C7A7A"/>
</svg>
