<svg width="9" height="11" viewBox="0 0 9 11" fill="none" xmlns="http://www.w3.org/2000/svg">
<path d="M8.33437 2.09976H7.09437C7.00154 1.64832 6.7559 1.24269 6.39888 0.951243C6.04185 0.659792 5.59526 0.500338 5.13437 0.499756H4.33437C3.87349 0.500338 3.4269 0.659792 3.06987 0.951243C2.71285 1.24269 2.46721 1.64832 2.37437 2.09976H1.13437C1.02829 2.09976 0.926547 2.1419 0.851532 2.21691C0.776518 2.29193 0.734375 2.39367 0.734375 2.49976C0.734375 2.60584 0.776518 2.70758 0.851532 2.7826C0.926547 2.85761 1.02829 2.89976 1.13437 2.89976H1.53437V8.09976C1.53501 8.62999 1.74593 9.13833 2.12086 9.51327C2.4958 9.8882 3.00414 10.0991 3.53437 10.0998H5.93437C6.46461 10.0991 6.97295 9.8882 7.34789 9.51327C7.72282 9.13833 7.93374 8.62999 7.93437 8.09976V2.89976H8.33437C8.44046 2.89976 8.5422 2.85761 8.61722 2.7826C8.69223 2.70758 8.73438 2.60584 8.73438 2.49976C8.73438 2.39367 8.69223 2.29193 8.61722 2.21691C8.5422 2.1419 8.44046 2.09976 8.33437 2.09976ZM4.33437 1.29976H5.13437C5.38248 1.30006 5.62443 1.37711 5.82702 1.52033C6.02961 1.66356 6.18294 1.86595 6.26597 2.09976H3.20277C3.28581 1.86595 3.43914 1.66356 3.64173 1.52033C3.84432 1.37711 4.08627 1.30006 4.33437 1.29976ZM7.13437 8.09976C7.13437 8.41802 7.00795 8.72324 6.7829 8.94829C6.55786 9.17333 6.25263 9.29976 5.93437 9.29976H3.53437C3.21612 9.29976 2.91089 9.17333 2.68585 8.94829C2.4608 8.72324 2.33437 8.41802 2.33437 8.09976V2.89976H7.13437V8.09976Z" fill="#FAFAFA"/>
<path d="M3.93437 7.69976C4.04046 7.69976 4.1422 7.65761 4.21722 7.5826C4.29223 7.50759 4.33437 7.40584 4.33437 7.29976V4.89976C4.33437 4.79367 4.29223 4.69193 4.21722 4.61691C4.1422 4.5419 4.04046 4.49976 3.93437 4.49976C3.82829 4.49976 3.72655 4.5419 3.65153 4.61691C3.57652 4.69193 3.53437 4.79367 3.53437 4.89976V7.29976C3.53437 7.40584 3.57652 7.50759 3.65153 7.5826C3.72655 7.65761 3.82829 7.69976 3.93437 7.69976Z" fill="#FAFAFA"/>
<path d="M5.53438 7.69976C5.64046 7.69976 5.7422 7.65761 5.81722 7.5826C5.89223 7.50759 5.93437 7.40584 5.93437 7.29976V4.89976C5.93437 4.79367 5.89223 4.69193 5.81722 4.61691C5.7422 4.5419 5.64046 4.49976 5.53438 4.49976C5.42829 4.49976 5.32655 4.5419 5.25153 4.61691C5.17652 4.69193 5.13438 4.79367 5.13438 4.89976V7.29976C5.13438 7.40584 5.17652 7.50759 5.25153 7.5826C5.32655 7.65761 5.42829 7.69976 5.53438 7.69976Z" fill="#FAFAFA"/>
</svg>
